<svg xmlns="http://www.w3.org/2000/svg" viewBox="0 0 330.59 156.19"><defs><style>.cls-1{fill:none;stroke:#eb8a44;stroke-miterlimit:10;stroke-width:4px;}.cls-2{fill:#393939;}</style></defs><g id="Layer_2" data-name="Layer 2"><g id="Layer_1-2" data-name="Layer 1"><polyline class="cls-1" points="84.34 3.68 99.43 23.65 114.42 3.61 129.51 23.58 144.5 3.54 159.59 23.5 174.59 3.47 189.68 23.43 204.67 3.4 219.76 23.36 234.76 3.33 249.86 23.29"/><path class="cls-2" d="M17.14,139.57a21.1,21.1,0,0,1-7.44-1.35,14.45,14.45,0,0,1-6-4.05l3.39-4.69a18.67,18.67,0,0,0,4.7,3.26,11,11,0,0,0,4.7,1.09,11.39,11.39,0,0,0,3.22-.44,5,5,0,0,0,2.39-1.48,3.92,3.92,0,0,0,.92-2.69,3.85,3.85,0,0,0-1.27-3.09,10.15,10.15,0,0,0-3.17-1.79c-1.28-.46-2.67-.9-4.18-1.3A15.48,15.48,0,0,1,7.66,119a9.14,9.14,0,0,1-2.35-6.35,10.56,10.56,0,0,1,1.43-5.35,11.07,11.07,0,0,1,4.31-4.09,14,14,0,0,1,7-1.61,22.67,22.67,0,0,1,6.7.91,16.13,16.13,0,0,1,5.57,3.09l-3.22,5a10.1,10.1,0,0,0-3.7-2.48,10.84,10.84,0,0,0-3.87-.83,8.64,8.64,0,0,0-2.92.48,5.19,5.19,0,0,0-2.17,1.39,3.32,3.32,0,0,0-.83,2.31,3.41,3.41,0,0,0,1.18,2.91,10.15,10.15,0,0,0,3.17,1.79l3.92,1.39a19.33,19.33,0,0,1,4.7,2.09,10.81,10.81,0,0,1,3.34,3.21,8.56,8.56,0,0,1,1.27,4.79,12,12,0,0,1-1.53,6A10.75,10.75,0,0,1,25,138,17,17,0,0,1,17.14,139.57Z" transform="translate(-3.74)"/><path class="cls-2" d="M42.37,138.87V71.54h8v39.67l-.17-1.48a15,15,0,0,1,5.61-5.92,16.76,16.76,0,0,1,9-2.35,11.78,11.78,0,0,1,8.31,3,10.38,10.38,0,0,1,3.35,7.79v26.62H68.29V115a7.35,7.35,0,0,0-1.69-4.74,6.28,6.28,0,0,0-5-1.87A9.63,9.63,0,0,0,56,110.21,12,12,0,0,0,52,115a16.3,16.3,0,0,0-1.43,7v16.88Z" transform="translate(-3.74)"/><path class="cls-2" d="M90,89.81a4.06,4.06,0,0,1,1.52-3.22,5,5,0,0,1,3.35-1.31,4.89,4.89,0,0,1,3.31,1.31,4.31,4.31,0,0,1,0,6.48,5,5,0,0,1-3.31,1.26,5.12,5.12,0,0,1-3.35-1.26A4,4,0,0,1,90,89.81Zm.52,13h8.18v36H90.48Z" transform="translate(-3.74)"/><path class="cls-2" d="M124.67,139.13l-17.4-36.28h9.13L130.93,135Zm-9,17.06,23.75-53.34h7.48l-23.23,53.34Z" transform="translate(-3.74)"/><path class="cls-2" d="M167.12,140.26a11.49,11.49,0,0,1-8.22-3,10.83,10.83,0,0,1-3.35-7.78V102.85h8.18v23.76a8,8,0,0,0,1.74,4.74,6.2,6.2,0,0,0,4.87,2,8.72,8.72,0,0,0,5.35-1.78,12.86,12.86,0,0,0,3.88-4.87,16.09,16.09,0,0,0,1.47-7v-16.8h8.1v36h-7.4L181,130l.53,1.65a14.34,14.34,0,0,1-3.22,4.4,15.32,15.32,0,0,1-5,3.08A17,17,0,0,1,167.12,140.26Z" transform="translate(-3.74)"/><path class="cls-2" d="M210.45,102.85l.61,8.79-.26-1.39a13.31,13.31,0,0,1,5.57-6.39,17.11,17.11,0,0,1,9.13-2.4,11.82,11.82,0,0,1,8.31,3,10.41,10.41,0,0,1,3.35,7.79v26.62H229V115a7.36,7.36,0,0,0-1.7-4.74,6.26,6.26,0,0,0-5-1.87,9.79,9.79,0,0,0-5.61,1.74,11.66,11.66,0,0,0-4,4.79,16.3,16.3,0,0,0-1.44,7v16.88h-8.18v-36Z" transform="translate(-3.74)"/><path class="cls-2" d="M278.66,71.54h8.17v67.33h-8.17Z" transform="translate(-3.74)"/><path class="cls-2" d="M312.33,140.26a11.5,11.5,0,0,1-8.23-3,10.83,10.83,0,0,1-3.35-7.78V102.85h8.18v23.76a8,8,0,0,0,1.74,4.74,6.2,6.2,0,0,0,4.87,2,8.75,8.75,0,0,0,5.36-1.78,12.93,12.93,0,0,0,3.87-4.87,16.09,16.09,0,0,0,1.48-7v-16.8h8.09v36h-7.4l-.69-8.87.52,1.65a14.34,14.34,0,0,1-3.22,4.4,15.32,15.32,0,0,1-5,3.08A17,17,0,0,1,312.33,140.26Z" transform="translate(-3.74)"/></g></g></svg>