<svg xmlns="http://www.w3.org/2000/svg" viewBox="0 0 247.76 161.05"><defs><style>.cls-1{fill:#e6e6e6;}.cls-2{fill:#61dafb;}.cls-3{fill:#764abc;}.cls-4{fill:#393939;}</style></defs><g id="Layer_2" data-name="Layer 2"><g id="Layer_1-2" data-name="Layer 1"><rect class="cls-1" width="247.76" height="161.05"/><path class="cls-2" d="M94.3,50.89c0-5.21-6.52-10.14-16.51-13.2,2.3-10.19,1.28-18.29-3.24-20.89A7,7,0,0,0,71,15.91v3.57a3.75,3.75,0,0,1,1.83.41c2.18,1.25,3.12,6,2.39,12.13-.18,1.5-.47,3.09-.82,4.71A78.47,78.47,0,0,0,64.19,35a78.62,78.62,0,0,0-6.67-8c5.23-4.85,10.13-7.51,13.46-7.51V15.89h0c-4.41,0-10.17,3.14-16,8.58C49.15,19.06,43.38,16,39,16v3.58c3.31,0,8.23,2.64,13.45,7.46a75.71,75.71,0,0,0-6.61,8,76.51,76.51,0,0,0-10.19,1.76,46.93,46.93,0,0,1-.83-4.64C34,26,35,21.22,37.13,20A3.57,3.57,0,0,1,39,19.54V16h0a7.1,7.1,0,0,0-3.62.9c-4.51,2.59-5.51,10.68-3.19,20.84-10,3.07-16.45,8-16.45,13.18S22.24,61,32.23,64.09C29.93,74.27,31,82.38,35.47,85a7,7,0,0,0,3.6.9c4.41,0,10.17-3.14,16-8.58,5.83,5.41,11.6,8.52,16,8.52a7.15,7.15,0,0,0,3.62-.9c4.5-2.6,5.51-10.68,3.18-20.84C87.81,61,94.3,56.08,94.3,50.89ZM73.45,40.2c-.6,2.07-1.33,4.2-2.17,6.33-.65-1.28-1.34-2.56-2.09-3.84s-1.53-2.53-2.31-3.75C69.15,39.28,71.35,39.69,73.45,40.2ZM66.11,57.26c-1.25,2.17-2.53,4.22-3.86,6.12-2.39.21-4.81.32-7.24.32s-4.84-.11-7.21-.3c-1.33-1.91-2.63-3.94-3.87-6.09s-2.33-4.23-3.34-6.37c1-2.15,2.12-4.3,3.32-6.39s2.53-4.22,3.86-6.12q3.58-.32,7.24-.32c2.42,0,4.84.11,7.21.3q2,2.87,3.87,6.09c1.22,2.1,2.33,4.23,3.34,6.37C68.42,53,67.31,55.16,66.11,57.26Zm5.17-2.08a64.56,64.56,0,0,1,2.21,6.38c-2.09.51-4.3.94-6.6,1.28.79-1.24,1.57-2.5,2.31-3.8S70.63,56.46,71.28,55.18ZM55,72.27a66.24,66.24,0,0,1-4.45-5.12c1.44.06,2.91.11,4.4.11s3,0,4.46-.11A63.93,63.93,0,0,1,55,72.27ZM43.12,62.84q-3.4-.51-6.56-1.27c.59-2.06,1.33-4.19,2.16-6.33.66,1.29,1.35,2.57,2.1,3.85S42.34,61.62,43.12,62.84ZM55,29.5a66.45,66.45,0,0,1,4.45,5.13c-1.44-.06-2.91-.11-4.4-.11s-3,0-4.45.11A64.08,64.08,0,0,1,55,29.5ZM43.11,38.94c-.79,1.23-1.57,2.5-2.31,3.8s-1.42,2.56-2.08,3.84a67.25,67.25,0,0,1-2.21-6.38C38.61,39.71,40.82,39.28,43.11,38.94ZM28.61,59c-5.67-2.42-9.34-5.59-9.34-8.1s3.67-5.7,9.34-8.11c1.38-.59,2.89-1.12,4.44-1.61a77,77,0,0,0,3.6,9.75,74.87,74.87,0,0,0-3.55,9.71C31.51,60.13,30,59.59,28.61,59Zm8.62,22.89c-2.18-1.25-3.12-6-2.39-12.12.18-1.51.47-3.09.82-4.71a76.84,76.84,0,0,0,10.17,1.74,77.71,77.71,0,0,0,6.66,8C47.27,79.66,42.37,82.31,39,82.31A3.78,3.78,0,0,1,37.23,81.88Zm38-12.2c.76,6.12-.17,10.87-2.33,12.14a3.59,3.59,0,0,1-1.85.41c-3.31,0-8.23-2.64-13.45-7.46a75.71,75.71,0,0,0,6.61-8A76.51,76.51,0,0,0,74.39,65,42.47,42.47,0,0,1,75.22,69.68ZM81.39,59c-1.38.6-2.88,1.12-4.44,1.62a75.86,75.86,0,0,0-3.6-9.75,77.62,77.62,0,0,0,3.56-9.71c1.58.5,3.09,1,4.5,1.63,5.67,2.42,9.34,5.59,9.34,8.11S87.06,56.59,81.39,59Z"/><circle class="cls-2" cx="54.99" cy="50.89" r="7.32"/><path class="cls-3" d="M207.1,65.68a5.62,5.62,0,0,0-.6-11.2h-.2a5.59,5.59,0,0,0-5.4,5.8,5.74,5.74,0,0,0,1.6,3.7c-3.4,6.7-8.6,11.6-16.4,15.7a27,27,0,0,1-16.3,3.1c-4.5-.6-8-2.6-10.2-5.9a14.69,14.69,0,0,1-.8-15.5,23.54,23.54,0,0,1,6.8-8c-.4-1.3-1-3.5-1.3-5.1-14.5,10.5-13,24.7-8.6,31.4,3.3,5,10,8.1,17.4,8.1a24.58,24.58,0,0,0,6-.7A38.38,38.38,0,0,0,207.1,65.68Z"/><path class="cls-3" d="M224.7,53.28c-7.6-8.9-18.8-13.8-31.6-13.8h-1.6a5.49,5.49,0,0,0-4.9-3h-.2a5.6,5.6,0,0,0,.2,11.2h.2a5.63,5.63,0,0,0,4.9-3.4h1.8a38.11,38.11,0,0,1,21.3,6.5,26.79,26.79,0,0,1,10.6,12.8,13.86,13.86,0,0,1-.2,11.8,14.68,14.68,0,0,1-13.7,8.2,25.58,25.58,0,0,1-9.8-2.1c-1.1,1-3.1,2.6-4.5,3.6a30.87,30.87,0,0,0,12.9,3.1c9.6,0,16.7-5.3,19.4-10.6C232.4,71.78,232.2,61.78,224.7,53.28Z"/><path class="cls-3" d="M173.9,67.38a5.62,5.62,0,0,0,5.6,5.4h.2a5.6,5.6,0,0,0-.2-11.2h-.2a1.7,1.7,0,0,0-.7.1,36.64,36.64,0,0,1-5.2-22.2A26.83,26.83,0,0,1,179.3,24c2.9-3.7,8.5-5.5,12.3-5.6,10.6-.2,15.1,13,15.4,18.3,1.3.3,3.5,1,5,1.5-1.2-16.2-11.2-24.6-20.8-24.6-9,0-17.3,6.5-20.6,16.1-4.6,12.8-1.6,25.1,4,34.8A4.49,4.49,0,0,0,173.9,67.38Z"/><path class="cls-4" d="M117.25,43h9.14v8.93H135V60.6h-8.64v8.78h-9.14V60.6h-8.64V51.89h8.64Z"/><path d="M55.11,129.36l3.46,8.1-.94.07,3-8.17h4.9L58.46,146l-5-10.43L48.81,146l-7.16-16.66h4.89l3.82,8.75-1.73-.26,3-6.69-.82-1.8Z"/><path d="M81.28,118.05q-2.55,7-5.11,13.86t-5.11,13.86H66.52l5.11-13.86q2.57-6.91,5.12-13.86Z"/><path d="M94.39,118.59h17.85v5H105.8v21.46h-5.22V123.63H94.39Z"/><path d="M111.63,137a8.33,8.33,0,0,1,1.13-4.31,8,8,0,0,1,3.19-3,9.88,9.88,0,0,1,4.72-1.1,9.52,9.52,0,0,1,4.68,1.1,7.59,7.59,0,0,1,3,3,8.69,8.69,0,0,1,1.06,4.31,8.8,8.8,0,0,1-1.06,4.34,7.66,7.66,0,0,1-3,3,9.5,9.5,0,0,1-4.76,1.12,10.29,10.29,0,0,1-4.62-1,7.55,7.55,0,0,1-3.19-2.91A8.68,8.68,0,0,1,111.63,137Zm5.08,0a4.7,4.7,0,0,0,.5,2.21,4,4,0,0,0,1.37,1.57,3.36,3.36,0,0,0,1.94.58,3.55,3.55,0,0,0,2-.58,3.75,3.75,0,0,0,1.34-1.57,5.59,5.59,0,0,0,0-4.44,3.88,3.88,0,0,0-1.34-1.55,3.63,3.63,0,0,0-2-.57,3.43,3.43,0,0,0-1.94.57,4.12,4.12,0,0,0-1.37,1.55A4.73,4.73,0,0,0,116.71,137.06Z"/><path d="M132.19,137a8.23,8.23,0,0,1,1.13-4.31,8,8,0,0,1,3.19-3,9.84,9.84,0,0,1,4.71-1.1,9.52,9.52,0,0,1,4.68,1.1,7.53,7.53,0,0,1,3,3A8.69,8.69,0,0,1,150,137a8.81,8.81,0,0,1-1.07,4.34,7.6,7.6,0,0,1-3,3,9.46,9.46,0,0,1-4.75,1.12,10.33,10.33,0,0,1-4.63-1,7.58,7.58,0,0,1-3.18-2.91A8.68,8.68,0,0,1,132.19,137Zm5.07,0a4.71,4.71,0,0,0,.51,2.21,3.94,3.94,0,0,0,1.36,1.57,3.41,3.41,0,0,0,2,.58,3.58,3.58,0,0,0,2-.58,3.66,3.66,0,0,0,1.33-1.57,5.48,5.48,0,0,0,0-4.44,3.79,3.79,0,0,0-1.33-1.55,3.65,3.65,0,0,0-2-.57,3.48,3.48,0,0,0-2,.57,4.09,4.09,0,0,0-1.36,1.55A4.73,4.73,0,0,0,137.26,137.06Z"/><path d="M154,116.69h5v28.4h-5Z"/><path d="M164.19,145.09v-28.4h5v28.4Zm3.53-4.36-.51-4.79,9.51-7,3.06,2.7Zm5.51-6.33,7.12,10.69h-5.86l-4.58-7.81Z"/><path d="M183.74,123.78a2.26,2.26,0,0,1,.88-1.84,2.94,2.94,0,0,1,1.89-.72,2.79,2.79,0,0,1,1.85.72,2.29,2.29,0,0,1,.85,1.84,2.22,2.22,0,0,1-.85,1.81,2.83,2.83,0,0,1-1.85.71,3,3,0,0,1-1.89-.71A2.19,2.19,0,0,1,183.74,123.78Zm.1,5.58h5v15.73h-5Z"/><path d="M195.54,122.44h5.05v6.84h3.81v3.93h-3.81v11.88h-5.05V133.21H193.1v-3.93h2.44Z"/></g></g></svg>